<svg width="24" height="27" viewBox="0 0 24 27" fill="none" xmlns="http://www.w3.org/2000/svg">
<path d="M22.4124 10.6971H19.8394C18.9964 10.6971 18.3066 10.0182 18.3066 9.16423V1.53285C18.3066 0.689781 17.6168 0 16.7737 0H1.5219C0.678832 0 0 0.689781 0 1.53285V25.4672C0 26.3102 0.678832 27 1.5219 27H22.4124C23.2555 27 23.9453 26.3102 23.9453 25.4672V12.2299C23.9453 11.3869 23.2555 10.6971 22.4124 10.6971ZM21.2409 24.8102H2.70438C2.41971 24.8102 2.18978 24.5803 2.18978 24.2956V2.70438C2.18978 2.41971 2.41971 2.18978 2.70438 2.18978H15.6022C15.8869 2.18978 16.1168 2.41971 16.1168 2.70438V9.16423C16.1168 11.2117 17.792 12.8869 19.8394 12.8869H21.2409C21.5255 12.8869 21.7555 13.1168 21.7555 13.4015V24.2956C21.7555 24.5803 21.5255 24.8102 21.2409 24.8102Z" fill="#16406D"/>
<path d="M19.4342 14.3651H4.3028C3.95812 14.3651 3.67871 14.6445 3.67871 14.9892V22.6534C3.67871 22.9981 3.95812 23.2775 4.3028 23.2775H19.4342C19.7789 23.2775 20.0583 22.9981 20.0583 22.6534V14.9892C20.0583 14.6445 19.7789 14.3651 19.4342 14.3651Z" fill="#16406D"/>
</svg>
