<?xml version="1.0" encoding="UTF-8"?>
<svg id="Layer_1" data-name="Layer 1" xmlns="http://www.w3.org/2000/svg" version="1.1" viewBox="0 0 24 27">
  <defs>
    <style>
      .cls-1 {
        fill: #000;
        fill-rule: evenodd;
        stroke-width: 0px;
      }
    </style>
  </defs>
  <path class="cls-1" d="M12,26.5c-.2,0-.3,0-.5-.1L.7,20.4c-.3-.2-.5-.5-.5-.9V7.5c0-.4.2-.7.5-.9h.1L11.5.6c.1,0,.3-.1.5-.1s.3,0,.5.1l10.8,6c.3.2.5.5.5.9v12c0,.4-.2.7-.5.9l-10.8,6c-.1,0-.3.1-.5.1ZM13,14.1v9.7l8.8-4.9v-9.7s-8.8,4.9-8.8,4.9ZM2.2,18.9l8.8,4.9v-9.7L2.2,9.2v9.7ZM3.3,7.5l8.7,4.9,3.4-1.9L6.9,5.5s-3.6,2-3.6,2ZM8.9,4.4l8.5,5,3.3-1.8L12,2.6l-3.1,1.7h0Z"/>
</svg>