<?xml version="1.0" encoding="utf-8"?>
<!-- Generator: Adobe Illustrator 27.3.1, SVG Export Plug-In . SVG Version: 6.00 Build 0)  -->
<svg version="1.1" id="Layer_2_00000081628927504477765980000005440459191338502796_"
	 xmlns="http://www.w3.org/2000/svg" xmlns:xlink="http://www.w3.org/1999/xlink" x="0px" y="0px" viewBox="0 0 18.5 23"
	 style="enable-background:new 0 0 18.5 23;" xml:space="preserve">
<style type="text/css">
	.st0{fill:#FFFFFF;}
</style>
<g id="Layer_1-2">
	<g>
		<path class="st0" d="M16.6,23H5.4c-1,0-1.9-0.9-1.9-1.9v-5.8c0-0.5,0.4-0.9,0.9-0.9s0.9,0.4,0.9,0.9v5.8c0,0.1,0,0.1,0.1,0.1h11.1
			c0.1,0,0.1,0,0.1-0.1V1.9c0-0.1,0-0.1-0.1-0.1H5.4c-0.1,0-0.1,0-0.1,0.1v5.7c0,0.5-0.4,0.9-0.9,0.9S3.5,8.1,3.5,7.6V1.9
			c0-1,0.9-1.9,1.9-1.9h11.1c1,0,1.9,0.9,1.9,1.9v19.2C18.5,22.2,17.6,23,16.6,23z"/>
		<g>
			<path class="st0" d="M12.6,12.4H0.9C0.4,12.4,0,12,0,11.5s0.4-0.9,0.9-0.9h11.7c0.5,0,0.9,0.4,0.9,0.9S13.1,12.4,12.6,12.4z"/>
			<path class="st0" d="M12.6,12.4c-0.2,0-0.5-0.1-0.6-0.3L9,9.2C8.7,8.9,8.7,8.3,9,8c0.4-0.4,0.9-0.4,1.3,0l2.9,2.9
				c0.4,0.4,0.4,0.9,0,1.3C13,12.3,12.8,12.4,12.6,12.4z"/>
			<path class="st0" d="M9.7,15.3c-0.2,0-0.5-0.1-0.6-0.3c-0.4-0.4-0.4-0.9,0-1.3l2.9-2.9c0.4-0.4,0.9-0.4,1.3,0
				c0.4,0.4,0.4,0.9,0,1.3l-2.9,2.9C10.1,15.2,9.9,15.3,9.7,15.3z"/>
		</g>
	</g>
</g>
</svg>
