<?xml version="1.0" encoding="UTF-8"?>
<svg id="Layer_1" data-name="Layer 1" xmlns="http://www.w3.org/2000/svg" version="1.1" viewBox="0 0 24 27">
  <defs>
    <style>
      .cls-1 {
        fill: #000;
        stroke-width: 0px;
      }
    </style>
  </defs>
  <path class="cls-1" d="M22,7h-4.5V2c0-1.1-.9-2-2-2H2C.9,0,0,.9,0,2v23c0,1.1.9,2,2,2h20c1.1,0,2-.9,2-2V9c0-1.1-.9-2-2-2ZM21,25H3c-.6,0-1-.4-1-1V3c0-.6.4-1,1-1h11.5c.6,0,1,.4,1,1v4c0,1.1.9,2,2,2h3.4c.6,0,1,.5,1,1v14c0,.6-.4,1-1,1h.1Z"/>
  <path class="cls-1" d="M3.5,11.9v5.9c0,.8.7,1.5,1.5,1.5h14c.8,0,1.5-.7,1.5-1.5v-5.9c0-.8-.7-1.5-1.5-1.5H5c-.8,0-1.5.7-1.5,1.5ZM5.5,14.1l3.2,3.2h-3.2v-3.2ZM13.5,17.3h-2l-4.9-4.9h2l4.9,4.9ZM11.5,12.4h1.9l4.9,4.9h-1.9l-4.9-4.9ZM18.5,14.7l-2.3-2.3h2.3v2.3Z"/>
  <path class="cls-1" d="M19.1,20.5c-.8,0-1.4.6-1.4,1.4s.6,1.4,1.4,1.4,1.4-.6,1.4-1.4-.6-1.4-1.4-1.4Z"/>
  <path class="cls-1" d="M4.9,20.5c-.8,0-1.4.6-1.4,1.4s.6,1.4,1.4,1.4,1.4-.6,1.4-1.4-.6-1.4-1.4-1.4Z"/>
</svg>