<svg width="27" height="27" viewBox="0 0 27 27" fill="none" xmlns="http://www.w3.org/2000/svg">
<path d="M21.9513 10.8074C22.1721 11.3449 22.3544 11.9112 22.4792 12.4967H16.5955C15.7988 10.9418 14.1767 9.86675 12.3146 9.86675C10.4525 9.86675 8.82083 10.9418 8.02417 12.4967H2.15002C3.15784 7.81272 7.3235 4.29014 12.3146 4.29014C13.3224 4.29014 14.2919 4.43412 15.2133 4.70287C15.2229 4.00219 15.5204 3.36871 16.01 2.93678C14.839 2.57205 13.6008 2.37048 12.3146 2.37048C5.51902 2.37048 0 7.8895 0 14.6851C0 21.4807 5.51902 26.9997 12.3146 26.9997C19.1102 26.9997 24.6292 21.4711 24.6292 14.6851C24.6292 12.8614 24.2261 11.1241 23.5062 9.5692C23.1991 10.1739 22.6328 10.6346 21.9513 10.8074ZM9.41593 14.6851C9.41593 13.8117 9.79986 13.0246 10.4142 12.4967C10.9229 12.0552 11.5947 11.7864 12.3146 11.7864C13.0345 11.7864 13.6968 12.0552 14.2055 12.4967C14.8198 13.0246 15.2037 13.8117 15.2037 14.6851C15.2037 15.2994 15.0117 15.8657 14.6854 16.336C14.1575 17.0847 13.2936 17.5742 12.3146 17.5742C11.3356 17.5742 10.4621 17.0847 9.93424 16.336C9.60789 15.8657 9.41593 15.2994 9.41593 14.6851ZM2.04444 16.336H7.79382C8.36011 17.8813 9.70388 19.0619 11.3548 19.3979V25.0321C6.61322 24.6001 2.7931 20.972 2.04444 16.336ZM13.2744 25.0321V19.3979C14.9157 19.0619 16.2595 17.8813 16.8258 16.336H22.5752C21.8361 20.972 18.0064 24.6001 13.2744 25.0321Z" fill="#16406D"/>
<path d="M25.1284 3.76253H22.3353V0.959829C22.3353 0.431923 21.9033 0 21.3754 0C20.8475 0 20.4156 0.431923 20.4156 0.959829V3.76253H17.6129C17.085 3.76253 16.6531 4.18486 16.6531 4.72236C16.6531 4.96232 16.7395 5.18308 16.893 5.35585C17.037 5.51902 17.2482 5.6438 17.4785 5.67259C17.5169 5.67259 17.5649 5.67259 17.6129 5.67259H20.4156V8.4657C20.4156 8.95521 20.7803 9.36794 21.2699 9.41593C21.2986 9.42553 21.337 9.42552 21.3754 9.42552C21.9033 9.42552 22.3353 8.9936 22.3353 8.4657V5.67259H25.1284C25.6563 5.67259 26.0882 5.24067 26.0882 4.71276C26.0882 4.18486 25.6563 3.75293 25.1284 3.75293V3.76253Z" fill="#16406D"/>
</svg>
