<svg width="31" height="27" viewBox="0 0 31 27" fill="none" xmlns="http://www.w3.org/2000/svg">
<path d="M24.8639 19.2675C22.7278 19.2675 20.9976 20.9977 20.9976 23.1338C20.9976 25.2698 22.7278 27.0001 24.8639 27.0001C26.9999 27.0001 28.7302 25.2698 28.7302 23.1338C28.7302 20.9977 26.9999 19.2675 24.8639 19.2675ZM24.8639 25.0776C23.7851 25.0776 22.92 24.2125 22.92 23.1338C22.92 22.055 23.7851 21.1899 24.8639 21.1899C25.9426 21.1899 26.8077 22.0657 26.8077 23.1338C26.8077 24.2018 25.9319 25.0776 24.8639 25.0776Z" fill="#16406D"/>
<path d="M19.8442 22.3323C20.2287 19.769 22.6424 17.8786 25.2271 18.0495C25.8466 18.0922 26.4447 18.2417 26.9894 18.5088V8.77893H25.3339C19.5344 8.77893 14.8351 13.4783 14.8351 19.2777V26.1986H20.8161C20.0151 25.152 19.6199 23.7849 19.8442 22.3323Z" fill="#16406D"/>
<path d="M21.318 0C18.2207 0 15.3904 1.62342 13.8097 4.21875L13.1689 3.9197C12.6349 3.67405 11.9941 3.90902 11.7484 4.44304C11.5028 4.97706 11.7377 5.61788 12.2718 5.86353L12.8699 6.14122L7.1879 19.182L6.51503 18.8722C5.98101 18.6266 5.34019 18.8615 5.09454 19.3956C4.84889 19.9296 5.08386 20.5704 5.61788 20.8161L6.33347 21.1471L5.08386 24.0202H1.06804C0.480617 24.0202 0 24.5008 0 25.0882C0 25.6756 0.480617 26.1562 1.06804 26.1562H9.15308C9.74051 26.1562 10.2211 25.6756 10.2211 25.0882C10.2211 24.5008 9.74051 24.0202 9.15308 24.0202H7.42286L8.28798 22.0443L8.68315 22.2259C8.83267 22.2899 8.9822 22.322 9.13173 22.322C9.53758 22.322 9.92207 22.087 10.1036 21.7025C10.3493 21.1685 10.1143 20.5277 9.5803 20.282L9.14241 20.0791L14.8244 7.03837L15.337 7.27334C15.4866 7.33742 15.6361 7.36946 15.7856 7.36946C16.1915 7.36946 16.5759 7.13449 16.7575 6.75C17.0032 6.21598 16.7682 5.57516 16.2342 5.32951L15.7856 5.12658C17.0032 3.28956 19.0752 2.14676 21.3287 2.14676C24.7037 2.14676 27.4165 5.52176 27.9185 8.78995H27.0107V10.926H29.0079C29.2963 10.926 29.606 10.7979 29.8089 10.5949C30.0119 10.392 30.14 10.0823 30.14 9.79391C30.108 5.1693 26.3378 0.0106804 21.3287 0.0106804L21.318 0Z" fill="#16406D"/>
</svg>
